# This file uses centimeters as units for non-parametric coordinates.

v -22.154867 -0.500000 0.469152
v 22.154867 -0.500000 0.469152
v -22.154867 0.500000 0.469152
v 22.154867 0.500000 0.469152
v -22.154867 0.500000 -0.469152
v 22.154867 0.500000 -0.469152
v -22.154867 -0.500000 -0.469152
v 22.154867 -0.500000 -0.469152
v 23.252451 -0.500000 -0.469152
v 23.252451 -0.500000 0.469152
v 23.252451 0.500000 -0.469152
v 23.252451 0.500000 0.469152
v -23.252451 -0.500000 -0.469152
v -23.252451 -0.500000 0.469152
v -23.252451 0.500000 0.469152
v -23.252451 0.500000 -0.469152
v -22.154867 11.337802 0.469152
v 22.154867 11.337802 0.469152
v 22.154867 11.337802 -0.469152
v -22.154867 11.337802 -0.469152
v 23.252451 11.337802 0.469152
v 23.252451 11.337802 -0.469152
v -23.252451 11.337802 -0.469152
v -23.252451 11.337802 0.469152
v -22.154867 12.621608 0.469152
v 22.154867 12.621608 0.469152
v 22.154867 12.621608 -0.469152
v -22.154867 12.621608 -0.469152
v 23.252451 12.621608 0.469152
v 23.252451 12.621608 -0.469152
v -23.252451 12.621608 -0.469152
v -23.252451 12.621608 0.469152
v -22.154867 23.673336 0.469152
v 22.154867 23.673336 0.469152
v 22.154867 23.673336 -0.469152
v -22.154867 23.673336 -0.469152
v 23.252451 23.673336 0.469152
v 23.252451 23.673336 -0.469152
v -23.252451 23.673336 -0.469152
v -23.252451 23.673336 0.469152
v -22.154867 24.809288 0.469152
v 22.154867 24.809288 0.469152
v 22.154867 24.809288 -0.469152
v -22.154867 24.809288 -0.469152
v 23.252451 24.809288 0.469152
v 23.252451 24.809288 -0.469152
v -23.252451 24.809288 -0.469152
v -23.252451 24.809288 0.469152
v -22.154867 0.500000 -5.199360
v 22.154867 0.500000 -5.199360
v 22.154867 -0.500000 -5.199360
v -22.154867 -0.500000 -5.199360
v 23.252451 0.500000 -5.199360
v 23.252451 -0.500000 -5.199360
v -23.252451 -0.500000 -5.199360
v -23.252451 0.500000 -5.199360
v 22.154867 11.337802 -5.199360
v 23.252451 11.337802 -5.199360
v -23.252451 11.337802 -5.199360
v -22.154867 11.337802 -5.199360
v -22.154867 12.621608 -5.199360
v 22.154867 12.621608 -5.199360
v 23.252451 12.621608 -5.199360
v -23.252451 12.621608 -5.199360
v 22.154867 23.673336 -5.199360
v 23.252451 23.673336 -5.199360
v -23.252451 23.673336 -5.199360
v -22.154867 23.673336 -5.199360
v -22.154867 24.809288 -5.199360
v 22.154867 24.809288 -5.199360
v 23.252451 24.809288 -5.199360
v -23.252451 24.809288 -5.199360
v -22.154867 -3.653089 -0.469152
v 22.154867 -3.653089 -0.469152
v 22.154867 -3.653089 0.469152
v -22.154867 -3.653089 0.469152
v 23.252451 -3.653089 -0.469152
v 23.252451 -3.653089 0.469152
v -23.252451 -3.653089 0.469152
v -23.252451 -3.653089 -0.469152
v 22.154867 -3.653089 -5.199360
v 23.252451 -3.653089 -5.199360
v -23.252451 -3.653089 -5.199360
v -22.154867 -3.653089 -5.199360
vt 0.781843 0.986539
vt 0.783475 0.625089
vt 0.791632 0.625126
vt 0.790001 0.986576
vt 0.740693 0.035875
vt 0.739369 0.571682
vt 0.727952 0.572012
vt 0.729303 0.036076
vt 0.497140 0.607602
vt 0.496964 0.001580
vt 0.510641 0.001604
vt 0.509575 0.607624
vt 0.748469 0.986389
vt 0.750100 0.624938
vt 0.757754 0.624973
vt 0.756123 0.986423
vt 0.047057 0.099412
vt 0.065615 0.099525
vt 0.065563 0.126230
vt 0.048009 0.125739
vt 0.940131 0.087976
vt 0.956374 0.087259
vt 0.957143 0.101594
vt 0.940157 0.101755
vt 0.046468 0.015721
vt 0.066208 0.013927
vt 0.065838 0.042673
vt 0.046706 0.044565
vt 0.179325 0.100122
vt 0.181057 0.127047
vt 0.158674 0.127639
vt 0.158495 0.102425
vt 0.739604 0.584450
vt 0.728034 0.584579
vt 0.026244 0.124089
vt 0.025351 0.100813
vt 0.942740 0.016091
vt 0.954625 0.016301
vt 0.955671 0.036645
vt 0.940137 0.036283
vt 0.977339 0.086912
vt 0.977464 0.101717
vt 0.729090 0.023345
vt 0.740426 0.021772
vt 0.837352 0.102814
vt 0.836884 0.088525
vt 0.853974 0.088443
vt 0.854356 0.103585
vt 0.880040 0.625525
vt 0.878409 0.986975
vt 0.713786 0.782026
vt 0.021034 0.780080
vt 0.021509 0.610639
vt 0.714262 0.612584
vt 0.046883 0.341450
vt 0.026750 0.344702
vt 0.064566 0.340698
vt 0.173596 0.337447
vt 0.151145 0.339423
vt 0.857804 0.328619
vt 0.840767 0.330233
vt 0.959732 0.328140
vt 0.942659 0.327111
vt 0.978805 0.328528
vt 0.890512 0.625572
vt 0.888881 0.987022
vt 0.350847 0.005640
vt 0.352319 0.608391
vt 0.334227 0.608348
vt 0.333383 0.005683
vt 0.044733 0.375425
vt 0.024438 0.377701
vt 0.062755 0.377028
vt 0.173727 0.379093
vt 0.152039 0.375878
vt 0.857266 0.351218
vt 0.840002 0.351240
vt 0.959594 0.349436
vt 0.942897 0.349747
vt 0.978929 0.349184
vt 0.980665 0.625979
vt 0.979034 0.987429
vt 0.710834 0.983759
vt 0.012062 0.983418
vt 0.012147 0.809130
vt 0.710920 0.809471
vt 0.042824 0.591356
vt 0.021588 0.592054
vt 0.061294 0.589480
vt 0.170876 0.588622
vt 0.150159 0.589180
vt 0.857884 0.583211
vt 0.840149 0.584868
vt 0.965605 0.583791
vt 0.949752 0.580582
vt 0.984674 0.583641
vt 0.754484 0.035641
vt 0.753190 0.571514
vt 0.656662 0.574461
vt 0.658177 0.035356
vt 0.671955 0.035351
vt 0.670505 0.573657
vt 0.752676 0.584949
vt 0.738743 0.598373
vt 0.727292 0.597687
vt 0.658150 0.586664
vt 0.671460 0.585976
vt 0.658713 0.021623
vt 0.672380 0.021823
vt 0.728640 0.010572
vt 0.740275 0.010434
vt 0.753646 0.022353
vt 0.431287 0.607482
vt 0.432269 0.001466
vt 0.575335 0.001718
vt 0.574270 0.607738
vt 0.158785 0.012488
vt 0.158667 0.041825
vt 0.853921 0.036600
vt 0.851718 0.017787
vt 0.261969 0.123884
vt 0.260638 0.335808
vt 0.780970 0.332723
vt 0.776604 0.103326
vt 0.415193 0.005483
vt 0.416664 0.608234
vt 0.272504 0.608674
vt 0.269038 0.005840
vt 0.259782 0.376881
vt 0.259880 0.587666
vt 0.780087 0.584661
vt 0.778734 0.353638
vt 0.599149 0.573226
vt 0.600875 0.035266
vt 0.672125 0.598631
vt 0.674133 0.007628
vt 0.016498 0.882983
vt 0.704073 0.884434
vt 0.703970 0.933362
vt 0.016394 0.931912
vt 0.025401 0.048272
vt 0.977398 0.036553
vt 0.260467 0.098876
vt 0.178317 0.038701
vt 0.259521 0.043010
vt 0.835596 0.037100
vt 0.775429 0.088996
vt 0.774924 0.037968
vn 0.000000 0.000000 1.000000
vn 0.000000 0.000000 1.000000
vn 0.000000 0.000000 1.000000
vn 0.000000 0.000000 1.000000
vn 0.000000 1.000000 0.000000
vn 0.000000 1.000000 0.000000
vn 0.000000 1.000000 0.000000
vn 0.000000 1.000000 0.000000
vn 0.000000 0.000000 -1.000000
vn 0.000000 0.000000 -1.000000
vn 0.000000 0.000000 -1.000000
vn 0.000000 0.000000 -1.000000
vn 0.000000 -1.000000 0.000000
vn 0.000000 -1.000000 0.000000
vn 0.000000 -1.000000 0.000000
vn 0.000000 -1.000000 0.000000
vn 1.000000 0.000000 0.000000
vn 1.000000 0.000000 0.000000
vn 1.000000 0.000000 0.000000
vn 1.000000 0.000000 0.000000
vn -1.000000 0.000000 0.000000
vn -1.000000 0.000000 0.000000
vn -1.000000 0.000000 0.000000
vn -1.000000 0.000000 0.000000
vn 0.000000 -1.000000 0.000000
vn 0.000000 -1.000000 0.000000
vn 0.000000 0.000000 -1.000000
vn 0.000000 0.000000 -1.000000
vn 0.000000 1.000000 0.000000
vn 0.000000 1.000000 0.000000
vn 0.000000 0.000000 1.000000
vn 0.000000 0.000000 1.000000
vn 0.000000 -1.000000 0.000000
vn 0.000000 -1.000000 0.000000
vn 0.000000 0.000000 1.000000
vn 0.000000 0.000000 1.000000
vn 0.000000 1.000000 0.000000
vn 0.000000 1.000000 0.000000
vn 0.000000 0.000000 -1.000000
vn 0.000000 0.000000 -1.000000
vn 0.000000 0.000000 1.000000
vn 0.000000 0.000000 1.000000
vn 0.000000 0.000000 -1.000000
vn 0.000000 0.000000 -1.000000
vn 0.000000 0.000000 -1.000000
vn 0.000000 0.000000 -1.000000
vn 0.000000 0.000000 1.000000
vn 1.000000 0.000000 0.000000
vn 1.000000 0.000000 0.000000
vn 0.000000 0.000000 -1.000000
vn 0.000000 0.000000 -1.000000
vn 0.000000 0.000000 -1.000000
vn 0.000000 0.000000 -1.000000
vn -1.000000 0.000000 0.000000
vn -1.000000 0.000000 0.000000
vn 0.000000 0.000000 1.000000
vn 0.000000 0.000000 1.000000
vn 0.000000 0.000000 1.000000
vn 0.000000 0.000000 -1.000000
vn 0.000000 0.000000 -1.000000
vn 0.000000 0.000000 -1.000000
vn 0.000000 0.000000 -1.000000
vn 0.000000 0.000000 1.000000
vn 1.000000 0.000000 0.000000
vn 1.000000 0.000000 0.000000
vn 0.000000 0.000000 -1.000000
vn 0.000000 0.000000 -1.000000
vn 0.000000 0.000000 -1.000000
vn 0.000000 0.000000 -1.000000
vn -1.000000 0.000000 0.000000
vn -1.000000 0.000000 0.000000
vn 0.000000 0.000000 1.000000
vn 0.000000 0.000000 1.000000
vn 0.000000 0.000000 1.000000
vn 0.000000 0.000000 -1.000000
vn 0.000000 0.000000 -1.000000
vn 0.000000 0.000000 -1.000000
vn 0.000000 0.000000 -1.000000
vn 0.000000 0.000000 1.000000
vn 1.000000 0.000000 0.000000
vn 1.000000 0.000000 0.000000
vn 0.000000 0.000000 -1.000000
vn 0.000000 0.000000 -1.000000
vn 0.000000 0.000000 -1.000000
vn 0.000000 0.000000 -1.000000
vn -1.000000 0.000000 0.000000
vn -1.000000 0.000000 0.000000
vn 0.000000 0.000000 1.000000
vn 0.000000 0.000000 1.000000
vn 0.000000 0.000000 1.000000
vn 0.000000 0.000000 -1.000000
vn 0.000000 0.000000 -1.000000
vn 0.000000 0.000000 1.000000
vn 1.000000 0.000000 0.000000
vn 1.000000 0.000000 0.000000
vn 0.000000 0.000000 -1.000000
vn 0.000000 0.000000 -1.000000
vn -1.000000 0.000000 0.000000
vn -1.000000 0.000000 0.000000
vn 0.000000 0.000000 1.000000
vn 0.000000 1.000000 0.000000
vn 0.000000 1.000000 0.000000
vn 0.000000 1.000000 0.000000
vn 0.000000 1.000000 0.000000
vn 0.000000 -1.000000 0.000000
vn 0.000000 -1.000000 0.000000
vn 0.000000 -1.000000 0.000000
vn 0.000000 -1.000000 0.000000
vn 1.000000 0.000000 0.000000
vn 1.000000 0.000000 0.000000
vn 0.000000 -1.000000 0.000000
vn 0.000000 -1.000000 0.000000
vn 0.000000 -1.000000 0.000000
vn 0.000000 -1.000000 0.000000
vn -1.000000 0.000000 0.000000
vn -1.000000 0.000000 0.000000
vn -1.000000 0.000000 0.000000
vn -1.000000 0.000000 0.000000
vn -1.000000 0.000000 0.000000
vn -1.000000 0.000000 0.000000
vn 1.000000 0.000000 0.000000
vn -1.000000 0.000000 0.000000
vn 1.000000 0.000000 0.000000
vn 1.000000 0.000000 0.000000
vn 1.000000 0.000000 0.000000
vn 1.000000 0.000000 0.000000
vn 0.000000 -1.000000 0.000000
vn 0.000000 -1.000000 0.000000
vn 0.000000 -1.000000 0.000000
vn 0.000000 -1.000000 0.000000
vn 0.000000 1.000000 0.000000
vn 0.000000 1.000000 0.000000
vn 0.000000 1.000000 0.000000
vn 0.000000 1.000000 0.000000
vn 1.000000 0.000000 0.000000
vn -1.000000 0.000000 0.000000
vn -1.000000 0.000000 0.000000
vn -1.000000 0.000000 0.000000
vn -1.000000 0.000000 0.000000
vn -1.000000 0.000000 0.000000
vn 1.000000 0.000000 0.000000
vn -1.000000 0.000000 0.000000
vn 1.000000 0.000000 0.000000
vn 1.000000 0.000000 0.000000
vn 1.000000 0.000000 0.000000
vn 1.000000 0.000000 0.000000
vn 0.000000 -1.000000 0.000000
vn 0.000000 -1.000000 0.000000
vn 0.000000 -1.000000 0.000000
vn 0.000000 -1.000000 0.000000
vn 0.000000 1.000000 0.000000
vn 0.000000 1.000000 0.000000
vn 0.000000 1.000000 0.000000
vn 1.000000 0.000000 0.000000
vn -1.000000 0.000000 0.000000
vn 0.000000 1.000000 0.000000
vn 0.000000 0.000000 -1.000000
vn 0.000000 0.000000 -1.000000
vn 0.000000 0.000000 -1.000000
vn 0.000000 0.000000 -1.000000
vn 0.000000 0.000000 1.000000
vn 0.000000 0.000000 1.000000
vn 1.000000 0.000000 0.000000
vn 1.000000 0.000000 0.000000
vn 0.000000 0.000000 1.000000
vn 0.000000 0.000000 1.000000
vn -1.000000 0.000000 0.000000
vn -1.000000 0.000000 0.000000
vn -1.000000 0.000000 0.000000
vn -1.000000 0.000000 0.000000
vn -1.000000 0.000000 0.000000
vn -1.000000 0.000000 0.000000
vn 0.000000 0.000000 -1.000000
vn 0.000000 0.000000 -1.000000
vn 1.000000 0.000000 0.000000
vn -1.000000 0.000000 0.000000
vn 0.000000 0.000000 -1.000000
vn 0.000000 0.000000 -1.000000
vn 1.000000 0.000000 0.000000
vn 1.000000 0.000000 0.000000
vn 1.000000 0.000000 0.000000
vn 1.000000 0.000000 0.000000
f 1/1/1 2/2/2 4/3/3 3/4/4
f 41/5/5 42/6/6 43/7/7 44/8/8
f 49/9/9 50/10/10 51/11/11 52/12/12
f 73/13/13 74/14/14 75/15/15 76/16/16
f 10/17/17 9/18/18 11/19/19 12/20/20
f 13/21/21 14/22/22 15/23/23 16/24/24
f 75/25/15 74/26/14 77/27/25 78/28/26
f 51/29/11 50/30/10 53/31/27 54/32/28
f 43/7/7 42/6/6 45/33/29 46/34/30
f 4/35/3 2/36/2 10/17/31 12/20/32
f 73/37/13 76/38/16 79/39/33 80/40/34
f 1/41/1 3/42/4 15/23/35 14/22/36
f 41/5/5 44/8/8 47/43/37 48/44/38
f 49/45/9 52/46/12 55/47/39 56/48/40
f 3/4/4 4/3/3 18/49/41 17/50/42
f 6/51/43 5/52/44 20/53/45 19/54/46
f 4/35/3 12/20/32 21/55/47 18/56/41
f 12/20/20 11/19/19 22/57/48 21/55/49
f 53/31/27 50/30/10 57/58/50 58/59/51
f 49/45/9 56/48/40 59/60/52 60/61/53
f 16/24/24 15/23/23 24/62/54 23/63/55
f 15/23/35 3/42/4 17/64/42 24/62/56
f 17/50/42 18/49/41 26/65/57 25/66/58
f 57/67/59 60/68/60 61/69/61 62/70/62
f 18/56/41 21/55/47 29/71/63 26/72/57
f 21/55/49 22/57/48 30/73/64 29/71/65
f 58/59/51 57/58/50 62/74/66 63/75/67
f 60/61/53 59/60/52 64/76/68 61/77/69
f 23/63/55 24/62/54 32/78/70 31/79/71
f 24/62/56 17/64/42 25/80/58 32/78/72
f 25/66/58 26/65/57 34/81/73 33/82/74
f 27/83/75 28/84/76 36/85/77 35/86/78
f 26/72/57 29/71/63 37/87/79 34/88/73
f 29/71/65 30/73/64 38/89/80 37/87/81
f 63/75/67 62/74/66 65/90/82 66/91/83
f 61/77/69 64/76/68 67/92/84 68/93/85
f 31/79/71 32/78/70 40/94/86 39/95/87
f 32/78/72 25/80/58 33/96/74 40/94/88
f 33/97/74 34/98/73 42/6/89 41/5/90
f 65/99/82 68/100/85 69/101/91 70/102/92
f 34/98/73 37/103/79 45/33/93 42/6/89
f 37/104/81 38/105/80 46/34/94 45/33/95
f 66/106/83 65/99/82 70/102/92 71/107/96
f 68/100/85 67/108/84 72/109/97 69/101/91
f 39/110/87 40/111/86 48/44/98 47/43/99
f 40/112/88 33/97/74 41/5/90 48/44/100
f 5/113/101 6/114/102 50/10/103 49/9/104
f 8/115/105 7/116/106 52/12/107 51/11/108
f 11/19/19 9/18/18 54/32/109 53/31/110
f 77/27/25 74/26/14 81/117/111 82/118/112
f 73/37/13 80/40/34 83/119/113 84/120/114
f 13/21/21 16/24/24 56/48/115 55/47/116
f 6/121/117 19/122/118 57/58/119 50/30/120
f 22/57/48 11/19/19 53/31/110 58/59/121
f 16/24/24 23/63/55 59/60/122 56/48/115
f 20/123/123 5/124/124 49/45/125 60/61/126
f 19/125/127 20/126/128 60/68/129 57/67/130
f 28/127/131 27/128/132 62/70/133 61/69/134
f 30/73/64 22/57/48 58/59/121 63/75/135
f 23/63/55 31/79/71 64/76/136 59/60/122
f 27/129/137 35/130/138 65/90/139 62/74/140
f 38/89/80 30/73/64 63/75/135 66/91/141
f 31/79/71 39/95/87 67/92/142 64/76/136
f 36/131/143 28/132/144 61/77/145 68/93/146
f 35/133/147 36/134/148 68/100/149 65/99/150
f 44/8/8 43/7/7 70/102/151 69/101/152
f 43/7/7 46/34/30 71/107/153 70/102/151
f 46/34/94 38/105/80 66/135/141 71/107/154
f 39/110/87 47/43/99 72/109/155 67/136/142
f 47/43/37 44/8/8 69/101/152 72/109/156
f 7/137/157 8/138/158 74/139/159 73/140/160
f 2/2/2 1/1/1 76/16/161 75/15/162
f 9/18/18 10/17/17 78/28/163 77/27/164
f 10/17/31 2/36/2 75/141/162 78/28/165
f 1/41/1 14/22/36 79/39/166 76/142/161
f 14/22/22 13/21/21 80/40/167 79/39/168
f 8/143/169 51/29/170 81/144/171 74/145/172
f 51/29/11 54/32/28 82/118/173 81/144/174
f 54/32/109 9/18/18 77/27/164 82/118/175
f 13/21/21 55/47/116 83/119/176 80/40/167
f 55/47/39 52/46/12 84/146/177 83/119/178
f 52/46/179 7/147/180 73/148/181 84/146/182
